<?xml version="1.0" standalone="no"?>
<svg viewBox="0 0 200 200" xmlns="http://www.w3.org/2000/svg">
  <path fill="#775B5B" d="M43.1,-76C55.8,-67.3,66.1,-55.7,71.9,-42.5C77.7,-29.4,79.1,-14.7,79.9,0.4C80.6,15.5,80.7,31.1,72.9,40.9C65.2,50.7,49.6,54.8,36.1,60C22.6,65.2,11.3,71.6,-2.4,75.8C-16.1,79.9,-32.2,81.8,-45,76.2C-57.9,70.6,-67.5,57.6,-74.3,43.6C-81.1,29.7,-85,14.8,-84.7,0.2C-84.3,-14.4,-79.7,-28.9,-71.2,-39.9C-62.8,-50.9,-50.5,-58.5,-38,-67.3C-25.4,-76.2,-12.7,-86.3,1.2,-88.4C15.2,-90.6,30.4,-84.7,43.1,-76Z" transform="translate(100 100)" />
</svg>
