<?xml version="1.0" standalone="no"?>
<svg viewBox="0 0 200 200" xmlns="http://www.w3.org/2000/svg">
  <path fill="#D3B6B6" d="M35.5,-58.1C47.8,-54.3,60.8,-48.5,70.9,-38.4C81.1,-28.4,88.3,-14.2,86.9,-0.8C85.5,12.6,75.5,25.2,67.1,38.3C58.7,51.4,52,65,41.1,69.8C30.2,74.6,15.1,70.7,1.3,68.4C-12.5,66.2,-25,65.6,-34.6,60C-44.2,54.4,-50.9,43.8,-59.4,33C-67.9,22.1,-78.3,11.1,-83.1,-2.8C-87.9,-16.6,-87,-33.2,-80.4,-47.2C-73.7,-61.3,-61.1,-72.7,-46.8,-75.3C-32.4,-77.9,-16.2,-71.6,-2.3,-67.6C11.6,-63.6,23.2,-61.9,35.5,-58.1Z" transform="translate(100 100)" />
</svg>
