<?xml version="1.0" standalone="no"?>
<svg viewBox="0 0 200 200" xmlns="http://www.w3.org/2000/svg">
  <path fill="#8C6969" d="M20.5,-34.5C31,-29.5,46.9,-32.9,51.8,-28.5C56.7,-24.2,50.7,-12.1,44.7,-3.4C38.8,5.2,32.9,10.4,32.5,22.7C32.2,35,37.4,54.4,32.9,59.3C28.4,64.3,14.2,54.8,0.1,54.7C-14.1,54.6,-28.2,63.9,-41.6,64.1C-55,64.3,-67.7,55.4,-65.5,43.2C-63.3,31,-46.1,15.5,-43.1,1.7C-40.2,-12,-51.4,-24.1,-49.8,-29.7C-48.2,-35.4,-33.9,-34.7,-23.5,-39.7C-13.1,-44.6,-6.5,-55.3,-0.8,-54C5,-52.7,10.1,-39.4,20.5,-34.5Z" transform="translate(100 100)" />
</svg>
